# xmcd
#
# Track frame offsets: 
#        150
#        9273
#        21481
#        32618
#        45792
#        55738
#        69113
#        82067
#        96262
#        110140
#        123062
#        137677
#        150041
#        162136
#        175203
#        186793
#        199796
#        211960
#
# Disc length: 3014 seconds
#
# Revision: 0
# Processed by: cddbd v1.5.2PL0 Copyright (c) Steve Scherf et al.
# Submitted via: ExactAudioCopy v0.99pb5
#
DISCID=db0bc412
DTITLE=O'Day, Molly - O'Day, Molly - Radio Favorites
DYEAR=1900
DGENRE=Country
TTITLE0=Mule SKinner Blues
TTITLE1=It's All Coming True
TTITLE2=Goodnight Darling
TTITLE3=When the Angels Rolled the Stone Away
TTITLE4=I Wish I Was a Single Girl Again
TTITLE5=Beneath That Lonely Mound of Clay
TTITLE6=Too Late to Worry
TTITLE7=Six More Miles
TTITLE8=The Tear Stained Letter
TTITLE9=The Black Sheep Returned
TTITLE10=It's Different Now
TTITLE11=With You on My Mind
TTITLE12=I'll Never See Sunshine Again
TTITLE13=Why Do You Weep Dear Willow
TTITLE14=Fifteen Years Ago Today
TTITLE15=The Evening Train
TTITLE16=Don't Forget the Family Prayer
TTITLE17=Drunken Driver
EXTD=
EXTT0=
EXTT1=
EXTT2=
EXTT3=
EXTT4=
EXTT5=
EXTT6=
EXTT7=
EXTT8=
EXTT9=
EXTT10=
EXTT11=
EXTT12=
EXTT13=
EXTT14=
EXTT15=
EXTT16=
EXTT17=
PLAYORDER=
